<svg width="24" height="24" viewBox="0 0 24 24" fill="none" xmlns="http://www.w3.org/2000/svg">
<path d="M12 15.587L4.39083 23.2174C3.90978 23.6957 3.29754 23.9348 2.55411 23.9348C1.81067 23.9348 1.19843 23.6957 0.717391 23.2174C0.23913 22.7391 0 22.1304 0 21.3913C0 20.6522 0.23913 20.0435 0.717391 19.5652L8.34783 11.9348L0.717391 4.39096C0.23913 3.90987 0 3.29761 0 2.55417C0 1.8107 0.23913 1.19843 0.717391 0.717391C1.19565 0.23913 1.80435 0 2.54348 0C3.28261 0 3.8913 0.23913 4.36957 0.717391L12 8.34783L19.5438 0.717391C20.0249 0.23913 20.6372 0 21.3806 0C22.1241 0 22.7363 0.23913 23.2174 0.717391C23.7391 1.23913 24 1.8587 24 2.57609C24 3.29348 23.7391 3.8913 23.2174 4.36957L15.587 11.9348L23.2174 19.544C23.6957 20.025 23.9348 20.6372 23.9348 21.3807C23.9348 22.1241 23.6957 22.7363 23.2174 23.2174C22.6957 23.7391 22.0761 24 21.3587 24C20.6413 24 20.0435 23.7391 19.5652 23.2174L12 15.587Z" fill="#D9D9D9"/>
</svg>
